HIERARCHY
ROOT root     
{
	OFFSET 0.0000 0.0000 0.0000
	CHANNELS 6 Xposition Yposition Zposition Zrotation Yrotation Xrotation
	JOINT pelvis   
	{
		OFFSET 0.0000 0.0000 0.0000
		CHANNELS 3 Zrotation Yrotation Xrotation
		JOINT thorax   
		{
			OFFSET 0.0000 23.0750 -5.0000
			CHANNELS 3 Zrotation Yrotation Xrotation
			JOINT rclavicle
			{
				OFFSET 0.0000 28.0009 0.0000
				CHANNELS 3 Zrotation Yrotation Xrotation
				JOINT rhumerus 
				{
					OFFSET -18.5725 5.5939 0.0000
					CHANNELS 3 Zrotation Yrotation Xrotation
					JOINT rradius  
					{
						OFFSET -24.8459 0.0000 0.0000
						CHANNELS 3 Zrotation Yrotation Xrotation
						JOINT rhand    
						{
							OFFSET -24.5477 0.0000 0.0000
							CHANNELS 3 Zrotation Yrotation Xrotation
							End Site
							{
								OFFSET -8.1826 0.0000 0.0000
							}
						}
					}
				}
			}
			JOINT lclavicle
			{
				OFFSET 0.0000 28.0009 0.0000
				CHANNELS 3 Zrotation Yrotation Xrotation
				JOINT lhumerus 
				{
					OFFSET 18.5725 5.5939 0.0000
					CHANNELS 3 Zrotation Yrotation Xrotation
					JOINT lradius  
					{
						OFFSET 24.8459 0.0000 0.0000
						CHANNELS 3 Zrotation Yrotation Xrotation
						JOINT lhand    
						{
							OFFSET 24.5477 0.0000 0.0000
							CHANNELS 3 Zrotation Yrotation Xrotation
							End Site
							{
								OFFSET 8.1826 0.0000 0.0000
							}
						}
					}
				}
			}
			JOINT head     
			{
				OFFSET 0.0000 35.2030 0.0000
				CHANNELS 3 Zrotation Yrotation Xrotation
				End Site
				{
					OFFSET 0.0000 11.7343 0.0000
				}
			}
		}
		JOINT rfemur   
		{
			OFFSET -8.2817 0.0000 0.0000
			CHANNELS 3 Zrotation Yrotation Xrotation
			JOINT rtibia   
			{
				OFFSET 0.0000 -43.3627 0.0000
				CHANNELS 3 Zrotation Yrotation Xrotation
				JOINT rfoot    
				{
					OFFSET 0.0000 -38.2947 0.0000
					CHANNELS 3 Zrotation Yrotation Xrotation
					JOINT rtoes    
					{
						OFFSET 0.0000 0.0000 16.6054
						CHANNELS 3 Zrotation Yrotation Xrotation
						End Site
						{
							OFFSET 0.0000 0.0000 5.5351
						}
					}
				}
			}
		}
		JOINT lfemur   
		{
			OFFSET 8.2817 0.0000 0.0000
			CHANNELS 3 Zrotation Yrotation Xrotation
			JOINT ltibia   
			{
				OFFSET 0.0000 -43.3627 0.0000
				CHANNELS 3 Zrotation Yrotation Xrotation
				JOINT lfoot    
				{
					OFFSET 0.0000 -38.2947 0.0000
					CHANNELS 3 Zrotation Yrotation Xrotation
					JOINT ltoes    
					{
						OFFSET 0.0000 0.0000 16.6054
						CHANNELS 3 Zrotation Yrotation Xrotation
						End Site
						{
							OFFSET 0.0000 0.0000 5.5351
						}
					}
				}
			}
		}
	}
}
MOTION
Frames: 9
Frame Time: .0333333
151.61 69.992 11.866 56.5077 -88.5982 -22.4897 0 -0 0 -14.369 7.23567 14.0405 10.4729 -12.4176 3.00248e-05 38.8449 5.18223 16.9314 -180 69.6868 -180 6.02745 3.75614 0.197804 -5.45887 21.0467 2.01972e-05 -45.7371 34.1154 23.2917 0 -79.3948 0 -13.568 1.87773 -0.223396 7.7493 -9.62358 -22.4412 3.63468 -8.1667 -6.08019 -0 -0 35.5666 3.10313e-07 -4.41686 -6.15734 0.474697 3.11334e-06 -79.857 -12.1281 3.90266 -87.4034 -0 -0 65.7831 -5.87135e-07 7.48461 -2.31907 -0.304594 1.60367e-06 -21.4867 
150.14 69.815 11.823 56.243 -88.4076 -22.3155 0 -0 0 -15.0509 7.13642 13.9586 10.6843 -12.2865 1.6329e-05 39.5984 5.05085 17.0041 -180 69.8644 -180 6.14917 3.72752 0.200305 -6.15409 20.7383 -2.36864e-05 -45.1496 32.7051 22.7719 0 -78.7865 0 -13.077 1.95483 -0.224103 7.73166 -9.68136 -22.684 3.42498 -8.52849 -5.57541 -0 -0 36.1509 3.97792e-06 -4.21158 -3.84948 0.283302 -4.62148e-07 -80.5141 -12.5119 4.15249 -87.0553 -0 -0 67.3182 1.14441e-06 7.1611 -3.58868 -0.450608 -1.54181e-06 -20.1041 
148.7 69.668 11.788 57.0028 -88.2629 -23.1365 0 -0 0 -15.7013 7.02769 13.8726 10.9192 -12.1118 -6.21849e-05 40.4344 4.98017 17.1058 -180 70.1793 -180 6.18882 3.68237 0.199095 -6.95189 20.4644 -1.4085e-05 -44.5273 31.1355 22.2229 -1.60987e-06 -78.1144 1.30636e-06 -12.511 2.03293 -0.2229 7.66338 -9.66412 -22.8836 3.22209 -8.92781 -5.34187 -0 -0 37.1094 1.38046e-06 -4.08443 -1.71236 0.1223 1.04842e-06 -80.1503 -12.8379 4.4235 -86.6508 -0 -0 68.736 -3.17217e-06 6.99263 -4.95658 -0.607205 1.05705e-06 -18.8751 
147.29 69.555 11.76 58.4191 -88.1749 -24.5843 0 -0 0 -16.3116 6.90291 13.7911 11.1783 -11.8898 -3.97187e-05 41.3547 4.95812 17.221 -180 70.6296 -180 6.16611 3.62904 0.195499 -7.84113 20.2203 -4.22792e-05 -43.891 29.4092 21.6314 0 -77.3857 0 -11.8912 2.11253 -0.220012 7.54592 -9.57496 -23.0612 3.03449 -9.35921 -5.39288 -0 -0 38.4513 -8.777e-08 -4.09971 0.140201 -0.0101001 -1.65986e-08 -78.797 -13.0903 4.7027 -86.198 -0 -0 70.0306 5.25746e-07 6.97116 -6.35774 -0.77571 -3.55016e-06 -17.9142 
145.92 69.478 11.738 60.326 -88.1229 -26.4914 0 -0 0 -16.8756 6.75828 13.7266 11.4612 -11.6172 -4.64976e-05 42.3645 4.96931 17.335 -180 71.199 -180 6.10583 3.57765 0.190899 -8.80481 19.9934 -3.88384e-06 -43.2574 27.5394 20.9868 -1.44499e-06 -76.5913 1.14105e-06 -11.237 2.19679 -0.216104 7.38011 -9.42062 -23.2312 2.87345 -9.81383 -5.72789 -0 -0 40.1682 -2.28446e-07 -4.32465 1.61029 -0.1218 3.20948e-07 -76.5549 -13.2579 4.97618 -85.7063 -0 -0 71.1963 9.82659e-07 7.0774 -7.73674 -0.957603 3.21956e-06 -17.2938 
144.59 69.439 11.721 62.4989 -88.1328 -28.6585 0 -0 0 -17.3823 6.59213 13.695 11.7647 -11.2947 8.61358e-05 43.4676 5.00007 17.4262 -180 71.8941 -180 6.0365 3.5378 0.186599 -9.82115 19.7629 -0.000112805 -42.6536 25.5415 20.2775 0 -75.7238 0 -10.5692 2.29057 -0.2119 7.16596 -9.2108 -23.4028 2.75035 -10.282 -6.3327 -0 -0 42.2325 6.96724e-07 -4.8162 2.62891 -0.221399 2.36139e-06 -73.5655 -13.3357 5.23546 -85.1699 -0 -0 72.2291 -2.08126e-06 7.2839 -9.05228 -1.15211 5.80704e-06 -17.0486 
143.3 69.44 11.706 64.8726 -88.129 -31.0001 0 -0 0 -17.8241 6.40572 13.7116 12.0874 -10.9227 -7.51403e-05 44.675 5.03895 17.4751 -180 72.7064 -180 5.98479 3.51808 0.183998 -10.8646 19.5048 0.000106228 -42.101 23.4391 19.4964 0 -74.7816 0 -9.90523 2.3999 -0.208001 6.90406 -8.95608 -23.5786 2.67549 -10.7558 -7.18436 -0 -0 44.6022 2.41503e-06 -5.61042 3.16177 -0.310399 3.97701e-06 -69.968 -13.3258 5.47495 -84.5874 -0 -0 73.1246 1.92817e-07 7.55967 -10.2783 -1.35653 -1.18923e-06 -17.1637 
142.04 69.479 11.692 67.2268 -88.1818 -33.3418 0 -0 0 -18.1943 6.20167 13.7913 12.4201 -10.5043 1.69534e-05 45.9916 5.07758 17.4641 -180 73.6442 -180 5.97134 3.52427 0.1839 -11.9059 19.2013 -8.11039e-06 -41.6231 21.2568 18.6387 9.1614e-07 -73.7619 -1.22105e-06 -9.25957 2.53152 -0.204997 6.59329 -8.6665 -23.7514 2.65547 -11.23 -8.25376 -0 -0 47.2238 -6.66736e-06 -6.71326 3.20867 -0.377494 1.79107e-07 -65.892 -13.2352 5.69247 -83.95 -0 -0 73.8848 -1.51836e-05 7.87421 -11.4036 -1.56626 6.80731e-06 -17.5872 
140.82 69.555 11.679 69.5134 -88.2525 -35.634 0 -0 0 -18.4862 5.98342 13.9446 12.7584 -10.0436 -2.76389e-05 47.4247 5.11026 17.3811 -180 74.72 -180 6.00624 3.55732 0.186698 -12.9184 18.8258 7.60234e-05 -41.2385 19.0285 17.7015 8.48966e-07 -72.6652 -1.15432e-06 -8.64372 2.69303 -0.203604 6.23286 -8.35152 -23.9037 2.69345 -11.7019 -9.50948 -0 -0 50.0378 7.653e-07 -8.09958 2.79822 -0.398107 -2.39863e-06 -61.4283 -13.0757 5.89227 -83.2453 -0 -0 74.51 1.56495e-05 8.20126 -12.4296 -1.77682 -8.29391e-06 -18.2385 
